<mxfile host="drawio-plugin" modified="2021-05-18T22:11:57.369Z" agent="5.0 (Windows NT 6.2; Win64; x64) AppleWebKit/537.36 (KHTML, like Gecko) Chrome/87.0.4280.141 Safari/537.36" etag="Y7ue3kBO-K9sYKIMDsuf" version="14.6.6" type="embed"><diagram id="C5RBs43oDa-KdzZeNtuy" name="Page-1"><mxGraphModel dx="1065" dy="431" grid="1" gridSize="10" guides="1" tooltips="1" connect="1" arrows="1" fold="1" page="1" pageScale="1" pageWidth="827" pageHeight="1169" math="0" shadow="0"><root><mxCell id="WIyWlLk6GJQsqaUBKTNV-0"/><mxCell id="WIyWlLk6GJQsqaUBKTNV-1" parent="WIyWlLk6GJQsqaUBKTNV-0"/><mxCell id="lM_vxeIOSqChK4_i3Jvv-0" value="Component" style="swimlane;fontStyle=1;align=center;verticalAlign=top;childLayout=stackLayout;horizontal=1;startSize=26;horizontalStack=0;resizeParent=1;resizeParentMax=0;resizeLast=0;collapsible=1;marginBottom=0;" parent="WIyWlLk6GJQsqaUBKTNV-1" vertex="1"><mxGeometry x="334" y="80" width="160" height="60" as="geometry"/></mxCell><mxCell id="lM_vxeIOSqChK4_i3Jvv-2" value="" style="line;strokeWidth=1;fillColor=none;align=left;verticalAlign=middle;spacingTop=-1;spacingLeft=3;spacingRight=3;rotatable=0;labelPosition=right;points=[];portConstraint=eastwest;" parent="lM_vxeIOSqChK4_i3Jvv-0" vertex="1"><mxGeometry y="26" width="160" height="8" as="geometry"/></mxCell><mxCell id="lM_vxeIOSqChK4_i3Jvv-3" value="+ operation()" style="text;strokeColor=none;fillColor=none;align=left;verticalAlign=top;spacingLeft=4;spacingRight=4;overflow=hidden;rotatable=0;points=[[0,0.5],[1,0.5]];portConstraint=eastwest;" parent="lM_vxeIOSqChK4_i3Jvv-0" vertex="1"><mxGeometry y="34" width="160" height="26" as="geometry"/></mxCell><mxCell id="lM_vxeIOSqChK4_i3Jvv-4" value="ConcreteComponent" style="swimlane;fontStyle=1;align=center;verticalAlign=top;childLayout=stackLayout;horizontal=1;startSize=26;horizontalStack=0;resizeParent=1;resizeParentMax=0;resizeLast=0;collapsible=1;marginBottom=0;" parent="WIyWlLk6GJQsqaUBKTNV-1" vertex="1"><mxGeometry x="144" y="80" width="160" height="60" as="geometry"/></mxCell><mxCell id="lM_vxeIOSqChK4_i3Jvv-6" value="" style="line;strokeWidth=1;fillColor=none;align=left;verticalAlign=middle;spacingTop=-1;spacingLeft=3;spacingRight=3;rotatable=0;labelPosition=right;points=[];portConstraint=eastwest;" parent="lM_vxeIOSqChK4_i3Jvv-4" vertex="1"><mxGeometry y="26" width="160" height="8" as="geometry"/></mxCell><mxCell id="lM_vxeIOSqChK4_i3Jvv-7" value="+ operation()" style="text;strokeColor=none;fillColor=none;align=left;verticalAlign=top;spacingLeft=4;spacingRight=4;overflow=hidden;rotatable=0;points=[[0,0.5],[1,0.5]];portConstraint=eastwest;" parent="lM_vxeIOSqChK4_i3Jvv-4" vertex="1"><mxGeometry y="34" width="160" height="26" as="geometry"/></mxCell><mxCell id="lM_vxeIOSqChK4_i3Jvv-8" value="Decorator" style="swimlane;fontStyle=1;align=center;verticalAlign=top;childLayout=stackLayout;horizontal=1;startSize=26;horizontalStack=0;resizeParent=1;resizeParentMax=0;resizeLast=0;collapsible=1;marginBottom=0;" parent="WIyWlLk6GJQsqaUBKTNV-1" vertex="1"><mxGeometry x="334" y="180" width="160" height="86" as="geometry"/></mxCell><mxCell id="lM_vxeIOSqChK4_i3Jvv-9" value="- component" style="text;strokeColor=none;fillColor=none;align=left;verticalAlign=top;spacingLeft=4;spacingRight=4;overflow=hidden;rotatable=0;points=[[0,0.5],[1,0.5]];portConstraint=eastwest;" parent="lM_vxeIOSqChK4_i3Jvv-8" vertex="1"><mxGeometry y="26" width="160" height="26" as="geometry"/></mxCell><mxCell id="lM_vxeIOSqChK4_i3Jvv-10" value="" style="line;strokeWidth=1;fillColor=none;align=left;verticalAlign=middle;spacingTop=-1;spacingLeft=3;spacingRight=3;rotatable=0;labelPosition=right;points=[];portConstraint=eastwest;" parent="lM_vxeIOSqChK4_i3Jvv-8" vertex="1"><mxGeometry y="52" width="160" height="8" as="geometry"/></mxCell><mxCell id="lM_vxeIOSqChK4_i3Jvv-11" value="+ operation()" style="text;strokeColor=none;fillColor=none;align=left;verticalAlign=top;spacingLeft=4;spacingRight=4;overflow=hidden;rotatable=0;points=[[0,0.5],[1,0.5]];portConstraint=eastwest;" parent="lM_vxeIOSqChK4_i3Jvv-8" vertex="1"><mxGeometry y="60" width="160" height="26" as="geometry"/></mxCell><mxCell id="lM_vxeIOSqChK4_i3Jvv-12" value="ConcreteDecoratorA" style="swimlane;fontStyle=1;align=center;verticalAlign=top;childLayout=stackLayout;horizontal=1;startSize=26;horizontalStack=0;resizeParent=1;resizeParentMax=0;resizeLast=0;collapsible=1;marginBottom=0;" parent="WIyWlLk6GJQsqaUBKTNV-1" vertex="1"><mxGeometry x="144" y="300" width="160" height="60" as="geometry"/></mxCell><mxCell id="lM_vxeIOSqChK4_i3Jvv-14" value="" style="line;strokeWidth=1;fillColor=none;align=left;verticalAlign=middle;spacingTop=-1;spacingLeft=3;spacingRight=3;rotatable=0;labelPosition=right;points=[];portConstraint=eastwest;" parent="lM_vxeIOSqChK4_i3Jvv-12" vertex="1"><mxGeometry y="26" width="160" height="8" as="geometry"/></mxCell><mxCell id="lM_vxeIOSqChK4_i3Jvv-15" value="+ operation()" style="text;strokeColor=none;fillColor=none;align=left;verticalAlign=top;spacingLeft=4;spacingRight=4;overflow=hidden;rotatable=0;points=[[0,0.5],[1,0.5]];portConstraint=eastwest;" parent="lM_vxeIOSqChK4_i3Jvv-12" vertex="1"><mxGeometry y="34" width="160" height="26" as="geometry"/></mxCell><mxCell id="lM_vxeIOSqChK4_i3Jvv-16" value="ConcreteDecoratorB" style="swimlane;fontStyle=1;align=center;verticalAlign=top;childLayout=stackLayout;horizontal=1;startSize=26;horizontalStack=0;resizeParent=1;resizeParentMax=0;resizeLast=0;collapsible=1;marginBottom=0;" parent="WIyWlLk6GJQsqaUBKTNV-1" vertex="1"><mxGeometry x="334" y="300" width="160" height="60" as="geometry"/></mxCell><mxCell id="lM_vxeIOSqChK4_i3Jvv-18" value="" style="line;strokeWidth=1;fillColor=none;align=left;verticalAlign=middle;spacingTop=-1;spacingLeft=3;spacingRight=3;rotatable=0;labelPosition=right;points=[];portConstraint=eastwest;" parent="lM_vxeIOSqChK4_i3Jvv-16" vertex="1"><mxGeometry y="26" width="160" height="8" as="geometry"/></mxCell><mxCell id="lM_vxeIOSqChK4_i3Jvv-19" value="+ operation()" style="text;strokeColor=none;fillColor=none;align=left;verticalAlign=top;spacingLeft=4;spacingRight=4;overflow=hidden;rotatable=0;points=[[0,0.5],[1,0.5]];portConstraint=eastwest;" parent="lM_vxeIOSqChK4_i3Jvv-16" vertex="1"><mxGeometry y="34" width="160" height="26" as="geometry"/></mxCell><mxCell id="lM_vxeIOSqChK4_i3Jvv-20" value="ConcreteDecoratorC" style="swimlane;fontStyle=1;align=center;verticalAlign=top;childLayout=stackLayout;horizontal=1;startSize=26;horizontalStack=0;resizeParent=1;resizeParentMax=0;resizeLast=0;collapsible=1;marginBottom=0;" parent="WIyWlLk6GJQsqaUBKTNV-1" vertex="1"><mxGeometry x="524" y="300" width="160" height="60" as="geometry"/></mxCell><mxCell id="lM_vxeIOSqChK4_i3Jvv-22" value="" style="line;strokeWidth=1;fillColor=none;align=left;verticalAlign=middle;spacingTop=-1;spacingLeft=3;spacingRight=3;rotatable=0;labelPosition=right;points=[];portConstraint=eastwest;" parent="lM_vxeIOSqChK4_i3Jvv-20" vertex="1"><mxGeometry y="26" width="160" height="8" as="geometry"/></mxCell><mxCell id="lM_vxeIOSqChK4_i3Jvv-23" value="+ operation()" style="text;strokeColor=none;fillColor=none;align=left;verticalAlign=top;spacingLeft=4;spacingRight=4;overflow=hidden;rotatable=0;points=[[0,0.5],[1,0.5]];portConstraint=eastwest;" parent="lM_vxeIOSqChK4_i3Jvv-20" vertex="1"><mxGeometry y="34" width="160" height="26" as="geometry"/></mxCell><mxCell id="lM_vxeIOSqChK4_i3Jvv-24" value="" style="endArrow=block;endSize=16;endFill=0;html=1;entryX=0.5;entryY=1.154;entryDx=0;entryDy=0;entryPerimeter=0;exitX=0.5;exitY=0;exitDx=0;exitDy=0;" parent="WIyWlLk6GJQsqaUBKTNV-1" source="lM_vxeIOSqChK4_i3Jvv-8" target="lM_vxeIOSqChK4_i3Jvv-3" edge="1"><mxGeometry width="160" relative="1" as="geometry"><mxPoint x="404" y="180" as="sourcePoint"/><mxPoint x="564" y="180" as="targetPoint"/></mxGeometry></mxCell><mxCell id="lM_vxeIOSqChK4_i3Jvv-25" value="&lt;br&gt;" style="endArrow=block;endSize=16;endFill=0;html=1;exitX=1;exitY=0.5;exitDx=0;exitDy=0;entryX=0;entryY=0.5;entryDx=0;entryDy=0;" parent="WIyWlLk6GJQsqaUBKTNV-1" source="lM_vxeIOSqChK4_i3Jvv-4" target="lM_vxeIOSqChK4_i3Jvv-0" edge="1"><mxGeometry width="160" relative="1" as="geometry"><mxPoint x="374" y="170" as="sourcePoint"/><mxPoint x="534" y="170" as="targetPoint"/><Array as="points"/></mxGeometry></mxCell><mxCell id="lM_vxeIOSqChK4_i3Jvv-26" value="" style="endArrow=diamondThin;endFill=0;endSize=24;html=1;entryX=1;entryY=0.5;entryDx=0;entryDy=0;exitX=1;exitY=0.5;exitDx=0;exitDy=0;" parent="WIyWlLk6GJQsqaUBKTNV-1" source="lM_vxeIOSqChK4_i3Jvv-0" target="lM_vxeIOSqChK4_i3Jvv-9" edge="1"><mxGeometry width="160" relative="1" as="geometry"><mxPoint x="654" y="180" as="sourcePoint"/><mxPoint x="534" y="260" as="targetPoint"/><Array as="points"><mxPoint x="574" y="110"/><mxPoint x="574" y="219"/></Array></mxGeometry></mxCell><mxCell id="lM_vxeIOSqChK4_i3Jvv-27" value="" style="endArrow=block;endSize=16;endFill=0;html=1;exitX=0.5;exitY=0;exitDx=0;exitDy=0;entryX=0;entryY=0.5;entryDx=0;entryDy=0;" parent="WIyWlLk6GJQsqaUBKTNV-1" source="lM_vxeIOSqChK4_i3Jvv-12" target="lM_vxeIOSqChK4_i3Jvv-11" edge="1"><mxGeometry x="0.2142" y="-9" width="160" relative="1" as="geometry"><mxPoint x="374" y="260" as="sourcePoint"/><mxPoint x="534" y="260" as="targetPoint"/><mxPoint as="offset"/><Array as="points"><mxPoint x="224" y="300"/><mxPoint x="224" y="253"/><mxPoint x="294" y="253"/></Array></mxGeometry></mxCell><mxCell id="lM_vxeIOSqChK4_i3Jvv-29" value="" style="endArrow=block;endSize=16;endFill=0;html=1;exitX=0.5;exitY=0;exitDx=0;exitDy=0;entryX=1;entryY=0.5;entryDx=0;entryDy=0;" parent="WIyWlLk6GJQsqaUBKTNV-1" source="lM_vxeIOSqChK4_i3Jvv-20" target="lM_vxeIOSqChK4_i3Jvv-11" edge="1"><mxGeometry width="160" relative="1" as="geometry"><mxPoint x="664" y="270" as="sourcePoint"/><mxPoint x="824" y="270" as="targetPoint"/><Array as="points"><mxPoint x="604" y="253"/></Array></mxGeometry></mxCell><mxCell id="lM_vxeIOSqChK4_i3Jvv-28" value="" style="endArrow=block;endSize=16;endFill=0;html=1;entryX=0.5;entryY=1;entryDx=0;entryDy=0;entryPerimeter=0;exitX=0.5;exitY=0;exitDx=0;exitDy=0;" parent="WIyWlLk6GJQsqaUBKTNV-1" target="lM_vxeIOSqChK4_i3Jvv-11" edge="1" source="lM_vxeIOSqChK4_i3Jvv-16"><mxGeometry width="160" relative="1" as="geometry"><mxPoint x="404" y="330" as="sourcePoint"/><mxPoint x="564" y="330" as="targetPoint"/></mxGeometry></mxCell></root></mxGraphModel></diagram></mxfile>